<?xml version="1.0" encoding="utf-8"?><!-- Uploaded to: SVG Repo, www.svgrepo.com, Generator: SVG Repo Mixer Tools -->
<svg fill="#000000" width="800px" height="800px" viewBox="0 0 24 24" id="money-bag-dollar" data-name="Flat Color" xmlns="http://www.w3.org/2000/svg" class="icon flat-color"><path id="secondary" d="M13.28,6H10.72a1,1,0,0,1-.94-.66l-.72-2A1,1,0,0,1,10,2h4a1,1,0,0,1,.94,1.34l-.72,2A1,1,0,0,1,13.28,6Z" style="fill: rgb(44, 169, 188);"></path><path id="primary" d="M19.49,13.17,17.17,5.43A2,2,0,0,0,15.26,4H8.74A2,2,0,0,0,6.83,5.43L4.51,13.17A11.84,11.84,0,0,0,4,16.61a5,5,0,0,0,3.52,4.78A15.31,15.31,0,0,0,12,22a15.31,15.31,0,0,0,4.48-.61A5,5,0,0,0,20,16.61,11.84,11.84,0,0,0,19.49,13.17Z" style="fill: rgb(0, 0, 0);"></path><path id="secondary-2" data-name="secondary" d="M12.5,12h-1a.5.5,0,0,1,0-1H14a1,1,0,0,0,0-2H13a1,1,0,0,0-2,0v.05A2.5,2.5,0,0,0,11.5,14h1a.5.5,0,0,1,0,1H10a1,1,0,0,0,0,2h1a1,1,0,0,0,2,0V17A2.5,2.5,0,0,0,12.5,12Z" style="fill: rgb(44, 169, 188);"></path></svg>